<svg width="58" height="37" viewBox="0 0 58 37" fill="none" xmlns="http://www.w3.org/2000/svg">
<path d="M52.4 32.6001L49.9 29.8001L47.3 32.6001H42.2H31.2V19.7001H26L32.4 5.2001H38.6L40.8 10.2001V5.2001H48.5L49.8 9.0001L51.1 5.2001H57V3.0001C57 1.7001 55.9 0.600098 54.6 0.600098H2.99998C1.69998 0.600098 0.599976 1.7001 0.599976 3.0001V34.2001C0.599976 35.5001 1.69998 36.6001 2.99998 36.6001H54.7C56 36.6001 57.1 35.5001 57.1 34.2001V32.6001H52.4Z" fill="#0071CE"/>
<path d="M53.1 31.1001H57.1L51.8 25.4001L57.1 19.9001H53.2L49.8 23.5001L46.6 19.9001H42.5L47.8 25.5001L42.5 31.1001H46.4L49.8 27.5001L53.1 31.1001Z" fill="#0071CE"/>
<path d="M36 28.5001V26.8001H42.3V24.2001H36V22.5001H42.5V19.9001H32.9V31.1001H42.5V28.5001H36Z" fill="#0071CE"/>
<path d="M54.1 18.2001H57.1V6.90015L52.4 7.00015L49.9 14.0001L47.3 7.00015H42.5V18.2001H45.6V10.3001L48.5 18.2001H51.2L54.1 10.3001V18.2001Z" fill="#0071CE"/>
<path d="M37.5 7.00012H33.5L28.5 18.3001H31.9L32.8 16.0001H38L39 18.3001H42.5L37.5 7.00012ZM33.9 13.4001L35.4 9.70012L36.9 13.4001H33.9Z" fill="#0071CE"/>
<path d="M54.3 25.1001L57.1 28.2001L57.2 22.0001L54.3 25.1001Z" fill="#0071CE"/>
</svg>
