<svg width="58" height="37" viewBox="0 0 58 37" fill="none" xmlns="http://www.w3.org/2000/svg">
<path d="M52.3662 0.599976H5.69188C5.49749 0.599976 5.30275 0.599976 5.10871 0.601109C4.94468 0.602277 4.78103 0.604098 4.61738 0.608563C4.26047 0.618216 3.90051 0.639273 3.54807 0.702616C3.18999 0.767059 2.85679 0.872173 2.53173 1.03768C2.21216 1.20019 1.91959 1.41275 1.66605 1.6664C1.4124 1.92005 1.19984 2.21213 1.03736 2.53205C0.871821 2.85711 0.766638 3.19042 0.702642 3.54876C0.638959 3.90131 0.617761 4.2612 0.608143 4.61773C0.603746 4.78138 0.60186 4.94503 0.600792 5.10864C0.599658 5.3031 0.600036 5.49743 0.600036 5.69223V31.9081C0.600036 32.1029 0.599658 32.2969 0.600792 32.4917C0.60186 32.6554 0.603746 32.819 0.608143 32.9827C0.617761 33.3389 0.638959 33.6988 0.702642 34.0512C0.766638 34.4097 0.871821 34.7429 1.03736 35.068C1.19984 35.3879 1.4124 35.6803 1.66605 35.9336C1.91959 36.1877 2.21216 36.4002 2.53173 36.5623C2.85679 36.7283 3.18999 36.8334 3.54807 36.8978C3.90051 36.9607 4.26047 36.9822 4.61738 36.9918C4.78103 36.9955 4.94468 36.9977 5.10871 36.9985C5.30275 37 5.49749 37 5.69188 37H52.3662C52.5602 37 52.755 37 52.949 36.9985C53.1126 36.9977 53.2763 36.9955 53.4407 36.9918C53.7968 36.9822 54.1567 36.9607 54.51 36.8978C54.8676 36.8334 55.2009 36.7283 55.526 36.5623C55.8459 36.4002 56.1376 36.1877 56.3917 35.9336C56.6449 35.6803 56.8575 35.3879 57.0204 35.068C57.1863 34.7429 57.2914 34.4097 57.3551 34.0512C57.4188 33.6988 57.4395 33.3389 57.4491 32.9827C57.4536 32.819 57.4558 32.6554 57.4565 32.4917C57.458 32.2969 57.458 32.1029 57.458 31.9081V5.69223C57.458 5.49743 57.458 5.3031 57.4565 5.10864C57.4558 4.94503 57.4536 4.78138 57.4491 4.61773C57.4395 4.2612 57.4188 3.90131 57.3551 3.54876C57.2914 3.19042 57.1863 2.85711 57.0204 2.53205C56.8575 2.21213 56.6449 1.92005 56.3917 1.6664C56.1376 1.41275 55.8459 1.20019 55.526 1.03768C55.2009 0.872173 54.8676 0.767059 54.51 0.702616C54.1567 0.639273 53.7968 0.618216 53.4407 0.608563C53.2763 0.604098 53.1126 0.602277 52.949 0.601109C52.755 0.599976 52.5602 0.599976 52.3662 0.599976Z" fill="black"/>
<path d="M52.3662 1.81323L52.9404 1.81433C53.0959 1.81543 53.2515 1.81711 53.4079 1.82137C53.6799 1.82872 53.9982 1.84346 54.2949 1.89664C54.5527 1.94308 54.769 2.0137 54.9765 2.11937C55.1815 2.22349 55.3692 2.35993 55.5331 2.52361C55.6976 2.68839 55.8343 2.87643 55.9398 3.0836C56.0448 3.28953 56.115 3.50478 56.1612 3.76454C56.2142 4.05796 56.2289 4.37708 56.2363 4.65083C56.2405 4.80534 56.2426 4.95985 56.2433 5.11804C56.2448 5.30934 56.2448 5.50053 56.2448 5.69221V31.9081C56.2448 32.0998 56.2448 32.2906 56.2433 32.486C56.2426 32.6405 56.2405 32.795 56.2363 32.9498C56.2289 33.2231 56.2142 33.5421 56.1605 33.839C56.115 34.0952 56.0449 34.3104 55.9392 34.5174C55.834 34.7241 55.6976 34.9119 55.5338 35.0756C55.3689 35.2405 55.1818 35.3766 54.9745 35.4816C54.7685 35.5868 54.5526 35.6573 54.2973 35.7033C53.9946 35.7572 53.663 35.7721 53.4133 35.7788C53.2561 35.7824 53.0998 35.7845 52.9396 35.7853C52.7487 35.7867 52.5571 35.7867 52.3662 35.7867H5.69189C5.68935 35.7867 5.68688 35.7867 5.6843 35.7867C5.49558 35.7867 5.30648 35.7867 5.11432 35.7852C4.95764 35.7845 4.80131 35.7824 4.65017 35.779C4.39473 35.7721 4.06294 35.7573 3.76274 35.7036C3.50522 35.6573 3.28932 35.5868 3.0806 35.4803C2.87522 35.3761 2.68825 35.2402 2.52333 35.075C2.35968 34.9116 2.22368 34.7244 2.11854 34.5174C2.01328 34.3107 1.94287 34.0947 1.89656 33.8355C1.84304 33.5392 1.82834 33.2215 1.82099 32.95C1.8168 32.7946 1.81505 32.6392 1.81405 32.4847L1.81329 32.0285L1.81333 31.9081V5.69221L1.81329 5.57178L1.81401 5.11659C1.81505 4.96115 1.8168 4.80575 1.82099 4.65045C1.82834 4.3787 1.84304 4.06088 1.89701 3.7621C1.9429 3.50519 2.01328 3.28926 2.11909 3.08147C2.22341 2.87609 2.35965 2.6886 2.52416 2.52413C2.68801 2.3602 2.8756 2.22393 3.08229 2.11882C3.28877 2.01367 3.50508 1.94308 3.76261 1.89674C4.05933 1.84343 4.3778 1.82872 4.65055 1.82134C4.80602 1.81711 4.96149 1.81543 5.11579 1.81437L5.69189 1.81323H52.3662" fill="white"/>
<path d="M16.1218 12.8428C16.6087 12.2339 16.939 11.4163 16.8519 10.5808C16.1392 10.6162 15.2696 11.051 14.7661 11.6604C14.314 12.1822 13.9139 13.0341 14.0182 13.8346C14.8182 13.9039 15.6174 13.4347 16.1218 12.8428Z" fill="black"/>
<path d="M16.8429 13.9908C15.6811 13.9216 14.6933 14.6502 14.1384 14.6502C13.5833 14.6502 12.7337 14.0257 11.8148 14.0425C10.6188 14.0601 9.50903 14.7364 8.9021 15.8119C7.65375 17.9635 8.57266 21.1551 9.78662 22.9074C10.3761 23.7744 11.0866 24.729 12.0228 24.6947C12.9073 24.66 13.254 24.1219 14.3292 24.1219C15.4035 24.1219 15.7158 24.6947 16.6521 24.6773C17.6231 24.66 18.2302 23.8099 18.8197 22.9422C19.496 21.9539 19.7728 20.9996 19.7902 20.9472C19.7728 20.9299 17.9179 20.2183 17.9007 18.0846C17.8832 16.298 19.357 15.4482 19.4264 15.3955C18.5941 14.1645 17.2937 14.0257 16.8429 13.9908Z" fill="black"/>
<path d="M26.9588 11.5729C29.4839 11.5729 31.2423 13.3135 31.2423 15.8476C31.2423 18.3909 29.4477 20.1405 26.8955 20.1405H24.0997V24.5866H22.0797V11.5729H26.9588V11.5729ZM24.0997 18.445H26.4174C28.1761 18.445 29.1771 17.4981 29.1771 15.8567C29.1771 14.2154 28.1761 13.2775 26.4265 13.2775H24.0997V18.445V18.445Z" fill="black"/>
<path d="M31.77 21.8902C31.77 20.2307 33.0416 19.2117 35.2964 19.0854L37.8936 18.9321V18.2017C37.8936 17.1465 37.1811 16.5152 35.9909 16.5152C34.8633 16.5152 34.1598 17.0562 33.9886 17.904H32.1489C32.2571 16.1904 33.718 14.9279 36.0629 14.9279C38.3626 14.9279 39.8325 16.1454 39.8325 18.0483V24.5867H37.9656V23.0265H37.9207C37.3707 24.0817 36.1711 24.749 34.9266 24.749C33.0688 24.749 31.77 23.5946 31.77 21.8902ZM37.8936 21.0335V20.285L35.5577 20.4292C34.3943 20.5104 33.7361 21.0244 33.7361 21.8361C33.7361 22.6657 34.4214 23.2069 35.4676 23.2069C36.8293 23.2069 37.8936 22.2689 37.8936 21.0335Z" fill="black"/>
<path d="M41.595 28.077V26.4987C41.739 26.5347 42.0636 26.5347 42.2261 26.5347C43.1279 26.5347 43.615 26.156 43.9124 25.182C43.9124 25.1639 44.0839 24.6048 44.0839 24.5958L40.657 15.0992H42.7671L45.1663 22.8192H45.2021L47.6013 15.0992H49.6575L46.1039 25.0827C45.2926 27.3825 44.3546 28.122 42.3886 28.122C42.2261 28.122 41.739 28.1039 41.595 28.077Z" fill="black"/>
</svg>
