<svg width="58" height="39" viewBox="0 0 58 39" fill="none" xmlns="http://www.w3.org/2000/svg">
<path d="M36.4 7.30005H21.5V31.7001H36.4V7.30005Z" fill="#FF5F00"/>
<path d="M23.1 19.5C23.1 14.7 25.3 10.2 29 7.29999C22.3 1.99999 12.5 3.19999 7.20001 9.89999C1.90001 16.6 3.10002 26.4 9.80002 31.7C15.4 36.1 23.3 36.1 29 31.7C25.3 28.8 23.1 24.3 23.1 19.5Z" fill="#EB001B"/>
<path d="M52.6001 29.1V28.6H52.8V28.5H52.3V28.6H52.5L52.6001 29.1ZM53.6001 29.1V28.5H53.4L53.2 28.9L53 28.5H52.8V29.1H52.9V28.6L53.1001 29H53.2L53.4 28.6V29.1H53.6001Z" fill="#F79E1B"/>
<path d="M54.1 19.5C54.1 28.1 47.2 35 38.6 35C35.1 35 31.7 33.8 29 31.7C35.7 26.4 36.9 16.7 31.6 9.89999C30.8 8.89999 30 8.09999 29 7.29999C35.7 1.99999 45.5 3.19999 50.8 9.89999C52.9 12.6 54.1 16 54.1 19.5Z" fill="#F79E1B"/>
</svg>
