<svg width="58" height="37" viewBox="0 0 58 37" fill="none" xmlns="http://www.w3.org/2000/svg">
<path d="M57.4 0.5H0.799988V36.5H57.4V0.5Z" fill="white"/>
<path d="M56.5 30.6H1.79999V35.5H56.5V30.6Z" fill="#FCB316"/>
<path d="M56.5 1.5H1.79999V6.4H56.5V1.5Z" fill="#10357F"/>
<path d="M23.7 11.8L18 25.3H14.3L11.5 14.5C11.5 14 11.1 13.5 10.7 13.3C9.59998 12.8 8.39999 12.4 7.29999 12.2L7.39998 11.8H13.3C14.1 11.8 14.8 12.4 14.9 13.2L16.4 21L20 11.8C20 11.8 23.7 11.8 23.7 11.8ZM38.1 20.9C38.1 17.3 33.2 17.1 33.2 15.6C33.2 15.1 33.7 14.6 34.7 14.5C35.9 14.4 37.1 14.6 38.1 15.1L38.7 12.2C37.7 11.8 36.5 11.6 35.4 11.6C32 11.6 29.5 13.4 29.5 16.1C29.5 18 31.2 19.1 32.6 19.8C34 20.5 34.4 20.9 34.4 21.5C34.4 22.4 33.3 22.8 32.3 22.8C31.1 22.8 29.8 22.5 28.7 22L28.1 25C29.3 25.5 30.7 25.7 32 25.7C35.7 25.5 38.1 23.7 38.1 20.9ZM47.2 25.3H50.4L47.6 11.8H44.6C43.9 11.8 43.4 12.2 43.1 12.8L37.9 25.3H41.6L42.3 23.3H46.8L47.2 25.3ZM43.3 20.5L45.1 15.4L46.2 20.5H43.3ZM28.7 11.8L25.8 25.3H22.3L25.2 11.8H28.7Z" fill="#10357F"/>
</svg>
